<svg width="48" height="6" viewBox="0 0 48 6" fill="none" xmlns="http://www.w3.org/2000/svg">
<path d="M0.834936 3L3 5.16506L5.16506 3L3 0.834936L0.834936 3ZM47.2652 3.26517C47.4116 3.11872 47.4116 2.88128 47.2652 2.73483L44.8787 0.34835C44.7322 0.201903 44.4948 0.201903 44.3484 0.34835C44.2019 0.494796 44.2019 0.732233 44.3484 0.87868L46.4697 3L44.3484 5.12132C44.2019 5.26777 44.2019 5.5052 44.3484 5.65165C44.4948 5.7981 44.7322 5.7981 44.8787 5.65165L47.2652 3.26517ZM3 3V3.375H47V3V2.625H3V3Z" fill="#D80101"/>
</svg>
