<svg width="60" height="60" viewBox="0 0 60 60" fill="none" xmlns="http://www.w3.org/2000/svg">
<path d="M20 21.25C20 19.8693 18.8807 18.75 17.5 18.75C16.1193 18.75 15 19.8693 15 21.25V22.5H13.75C12.3693 22.5 11.25 23.6193 11.25 25C11.25 26.3807 12.3693 27.5 13.75 27.5H15V28.75C15 30.1307 16.1193 31.25 17.5 31.25C18.8807 31.25 20 30.1307 20 28.75V27.5H21.25C22.6307 27.5 23.75 26.3807 23.75 25C23.75 23.6193 22.6307 22.5 21.25 22.5H20V21.25Z" fill="#0F1729"/>
<path d="M45 20C45 21.3807 43.8807 22.5 42.5 22.5C41.1193 22.5 40 21.3807 40 20C40 18.6193 41.1193 17.5 42.5 17.5C43.8807 17.5 45 18.6193 45 20Z" fill="#0F1729"/>
<path d="M42.5 32.5C43.8807 32.5 45 31.3807 45 30C45 28.6193 43.8807 27.5 42.5 27.5C41.1193 27.5 40 28.6193 40 30C40 31.3807 41.1193 32.5 42.5 32.5Z" fill="#0F1729"/>
<path d="M40 25C40 26.3807 38.8807 27.5 37.5 27.5C36.1193 27.5 35 26.3807 35 25C35 23.6193 36.1193 22.5 37.5 22.5C38.8807 22.5 40 23.6193 40 25Z" fill="#0F1729"/>
<path d="M47.5 27.5C48.8807 27.5 50 26.3807 50 25C50 23.6193 48.8807 22.5 47.5 22.5C46.1193 22.5 45 23.6193 45 25C45 26.3807 46.1193 27.5 47.5 27.5Z" fill="#0F1729"/>
<path fill-rule="evenodd" clip-rule="evenodd" d="M30 7.5C25.4697 7.5 19.9059 8.14542 15.5446 8.77325C9.85763 9.5919 5.2274 13.7924 4.02483 19.4708C3.35185 22.6484 2.69235 26.4055 2.54123 29.551C2.43287 31.8063 2.19495 34.9577 1.94289 37.9807C1.68064 41.126 2.7287 44.366 4.65198 46.6703C6.61458 49.0218 9.72288 50.6067 13.3091 49.6032C15.6054 48.9605 17.4402 47.3468 18.8013 45.7565C20.1925 44.1313 21.2998 42.281 22.0884 40.7758C22.6955 39.6168 23.7733 38.9637 24.7885 38.9637H35.2115C36.2265 38.9637 37.3045 39.6168 37.9115 40.7758C38.7003 42.281 39.8075 44.1313 41.1987 45.7565C42.5597 47.3468 44.3945 48.9605 46.6908 49.6032C50.277 50.6067 53.3853 49.0218 55.348 46.6703C57.2713 44.366 58.3192 41.126 58.057 37.9807C57.805 34.9577 57.567 31.8063 57.4587 29.551C57.3075 26.4055 56.648 22.6484 55.975 19.4708C54.7725 13.7924 50.1423 9.5919 44.4553 8.77325C40.094 8.14542 34.5303 7.5 30 7.5ZM16.257 13.7222C20.5686 13.1016 25.842 12.5 30 12.5C34.158 12.5 39.4313 13.1016 43.743 13.7223C47.4125 14.2505 50.3277 16.9372 51.0835 20.5067C51.7417 23.6141 52.333 27.0557 52.4645 29.791C52.5772 32.14 52.8218 35.3657 53.0743 38.3962C53.228 40.239 52.5855 42.177 51.5093 43.4665C50.4723 44.709 49.2722 45.1335 48.0382 44.7883C47.1242 44.5323 46.0817 43.7725 44.9972 42.5052C43.9427 41.2735 43.036 39.7828 42.3405 38.4555C41.0107 35.9168 38.3705 33.9637 35.2115 33.9637H24.7885C21.6295 33.9637 18.9893 35.9168 17.6594 38.4555C16.964 39.7828 16.0571 41.2735 15.0027 42.5052C13.9181 43.7725 12.8757 44.5323 11.9616 44.7883C10.7277 45.1335 9.52755 44.709 8.49063 43.4665C7.4144 42.177 6.77195 40.239 6.9256 38.3962C7.17828 35.3657 7.4226 32.14 7.53545 29.791C7.66688 27.0557 8.25823 23.6141 8.91633 20.5067C9.67228 16.9372 12.5874 14.2505 16.257 13.7222Z" fill="#0F1729"/>
</svg>
