<svg width="64" height="64" viewBox="0 0 64 64" fill="none" xmlns="http://www.w3.org/2000/svg">
<rect width="64" height="64" fill="#2A2A2A"/>
<path d="M33.6699 43H23.9669V41.96H26.7099L23.6394 34.2H15.2465L12.2169 41.96H14.3458C14.5096 41.96 14.6733 41.9733 14.8371 42C15.1919 42.08 15.3693 42.4133 15.3693 43H8V41.96H10.5793L19.6681 19H21.838L31.3362 41.96H32.6463C32.7828 41.96 32.9193 41.9733 33.0558 42C33.4652 42.0533 33.6699 42.3867 33.6699 43ZM23.1481 33.04L19.4225 23.56L15.6969 33.04H23.1481Z" fill="#FF8C8C"/>
<path d="M43.6594 42C43.8505 42 44.0142 42.0133 44.1507 42.04C44.5055 42.0933 44.6829 42.4133 44.6829 43H34.6524V42C35.3621 42 35.9216 41.9467 36.331 41.84C37.2863 41.6267 37.7639 40.92 37.7639 39.72V18H34.6524V17H41.6943V34.36L49.8005 26.92H46.7709V25.92H53.7308C53.7308 26.0533 53.7172 26.1867 53.6899 26.32C53.6353 26.72 53.2941 26.92 52.6664 26.92C52.4207 26.92 52.1751 26.9467 51.9294 27C51.4654 27.1067 50.7558 27.6 49.8005 28.48L46.2796 31.72L52.8711 42H53.9765C54.1675 42 54.3313 42.0133 54.4678 42.04C54.8226 42.0933 55 42.4133 55 43H49.0226L43.5775 34.24L41.6943 35.96V42H43.6594Z" fill="#FF8C8C"/>
</svg>
