<svg width="60" height="60" viewBox="0 0 60 60" fill="none" xmlns="http://www.w3.org/2000/svg">
<path d="M50.7789 9.09164H9.21829C4.13528 9.09164 0 13.2269 0 18.3114V41.6901C0 46.7731 4.13528 50.9098 9.21829 50.9098H50.7803C55.8633 50.9098 60 46.7745 60 41.6901V18.3114C60 13.2283 55.8633 9.09164 50.7789 9.09164ZM55.731 41.6901H55.7281C55.7281 44.4194 53.5068 46.6407 50.7774 46.6407H9.21687C6.48753 46.6407 4.26762 44.418 4.26762 41.6901V18.3114C4.26762 15.582 6.48753 13.3607 9.21687 13.3607H50.7789C53.5082 13.3607 55.7295 15.582 55.7295 18.3114L55.731 41.6901Z" fill="#030104"/>
<path d="M29.9986 42.0601C36.6599 42.0601 42.0601 36.6599 42.0601 29.9986C42.0601 23.3372 36.6599 17.9371 29.9986 17.9371C23.3372 17.9371 17.9371 23.3372 17.9371 29.9986C17.9371 36.6599 23.3372 42.0601 29.9986 42.0601Z" fill="#030104"/>
</svg>
