<svg width="54" height="47" viewBox="0 0 54 47" fill="none" xmlns="http://www.w3.org/2000/svg">
<path d="M27 9.25805C24.2497 5.75765 20.0102 2.25725 9.50298 2.00038C8.81283 1.98353 8.25 2.5441 8.25 3.23445C8.25 8.35565 8.25 27.7438 8.25 33.4778C8.25 34.1681 8.81288 34.7103 9.50285 34.7328C20.0101 35.0763 24.2497 39.7348 27 43.2353M27 9.25805C29.7503 5.75765 33.9898 2.25725 44.497 2.00038C45.1873 1.98353 45.75 2.5315 45.75 3.22185C45.75 8.9465 45.75 27.7513 45.75 33.4761C45.75 34.1663 45.1872 34.7103 44.4972 34.7328C33.99 35.0763 29.7503 39.7348 27 43.2353M27 9.25805V43.2353" stroke="black" stroke-width="4" stroke-linejoin="round"/>
<path d="M45.0883 6.98532H50.75C51.4403 6.98532 52 7.54497 52 8.23532V40.8328C52 41.8443 50.8082 42.5163 49.8837 42.1056C47.896 41.2223 44.5787 40.1433 40.2352 40.1433C32.8822 40.1433 27 44.4853 27 44.4853C27 44.4853 21.1177 40.1433 13.7647 40.1433C9.42113 40.1433 6.1039 41.2223 4.11618 42.1056C3.1917 42.5163 2 41.8443 2 40.8328V8.23532C2 7.54497 2.55965 6.98532 3.25 6.98532H8.91177" stroke="black" stroke-width="4" stroke-linejoin="round"/>
</svg>
