<svg width="60" height="60" viewBox="0 0 60 60" fill="none" xmlns="http://www.w3.org/2000/svg">
<g clip-path="url(#clip0_26_37)">
<path d="M35.4394 60H44.6288C53.0663 60 60 53.0663 60 44.6288V15.3712C60 6.93375 53.0663 0 44.6288 0H35.2538C35.0681 0 34.8731 0.185625 34.8731 0.37125V59.6288C34.8731 59.8144 35.0587 60 35.4394 60ZM46.875 27.0019C50.2538 27.0019 52.8712 29.8144 52.8712 32.9981C52.8712 36.3769 50.0587 38.9944 46.875 38.9944C43.4962 38.9944 40.8788 36.3769 40.8788 32.9981C40.6838 29.6288 43.4962 27.0019 46.875 27.0019ZM28.4962 0H15.3712C6.93375 0 0 6.93375 0 15.3712V44.6288C0 53.0663 6.93375 60 15.3712 60H28.4962C28.6819 60 28.8769 59.8144 28.8769 59.6288V0.37125C28.8769 0.185625 28.6912 0 28.4962 0ZM24.1894 55.1269H15.3712C9.56062 55.1269 4.87312 50.4394 4.87312 44.6288V15.3712C4.87312 9.56062 9.56062 4.87312 15.3712 4.87312H24.0038L24.1894 55.1269ZM9.375 17.9981C9.375 21.1819 11.8163 23.6231 15 23.6231C18.1837 23.6231 20.625 21.1819 20.625 17.9981C20.625 14.8144 18.1837 12.3731 15 12.3731C11.8163 12.3731 9.375 14.8144 9.375 17.9981Z" fill="black"/>
</g>
<defs>
<clipPath id="clip0_26_37">
<rect width="60" height="60" fill="white"/>
</clipPath>
</defs>
</svg>
