<svg width="60" height="60" viewBox="0 0 60 60" fill="none" xmlns="http://www.w3.org/2000/svg">
<path fill-rule="evenodd" clip-rule="evenodd" d="M20.4523 6.41389C19.7598 7.62987 19.1349 9.13617 18.54 10.9127C13.9449 23.3612 6.8369 41.5615 3.40562 50.3C1.84735 54.2682 5.64303 58.2407 9.67793 56.8662C18.4699 53.871 36.6565 47.7172 49.0882 43.7985L49.126 43.7862C50.9098 43.1925 52.4148 42.5832 53.6228 41.9102C54.8183 41.2442 55.8877 40.426 56.6065 39.3367C58.2467 36.8515 57.3377 34.2495 56.253 32.2385C49.428 19.586 40.8963 10.6937 30.242 3.92574C29.2245 3.27947 28.0853 2.73064 26.8545 2.55714C25.5353 2.37117 24.2399 2.63667 23.0742 3.40767C21.9829 4.12952 21.1421 5.20257 20.4523 6.41389ZM37.728 22.7288C33.7762 18.512 29.4732 14.9487 23.8881 10.8312C24.2042 10.0376 24.5071 9.39752 24.7971 8.88829C25.2787 8.04257 25.6438 7.70287 25.8325 7.57797C25.947 7.50224 26.0062 7.48702 26.1565 7.50817C26.3947 7.54179 26.8395 7.68792 27.561 8.14619C37.485 14.4504 45.4285 22.7033 51.8525 34.6122C52.7472 36.2712 52.4582 36.5582 52.4347 36.5812C52.3307 36.7385 52.0223 37.0782 51.1893 37.5425C50.7153 37.8065 50.1228 38.0832 49.3895 38.3752C45.2438 31.7835 41.693 26.9597 37.728 22.7288ZM34.0795 26.1477C37.5527 29.8537 40.7453 34.113 44.5055 40.0082C32.2523 43.929 16.1549 49.3775 8.06553 52.1332L8.06148 52.1345L8.05822 52.1312L8.05968 52.1275C11.2172 44.0862 17.5075 27.9835 22.0875 15.7219C26.9695 19.3751 30.6845 22.5249 34.0795 26.1477ZM25 32.5C27.7615 32.5 30 30.2615 30 27.5C30 24.7386 27.7615 22.5 25 22.5C22.2386 22.5 20 24.7386 20 27.5C20 30.2615 22.2386 32.5 25 32.5ZM25 40C25 42.7615 22.7614 45 20 45C17.2386 45 15 42.7615 15 40C15 37.2385 17.2386 35 20 35C22.7614 35 25 37.2385 25 40ZM32.5 42.5C35.2615 42.5 37.5 40.2615 37.5 37.5C37.5 34.7385 35.2615 32.5 32.5 32.5C29.7385 32.5 27.5 34.7385 27.5 37.5C27.5 40.2615 29.7385 42.5 32.5 42.5Z" fill="black"/>
</svg>
