<svg width="60" height="60" viewBox="0 0 60 60" fill="none" xmlns="http://www.w3.org/2000/svg">
<path d="M44.5 24.25C42.75 18.75 36.75 15 30 15C23.25 15 17.25 19 15.5 24.25C8.75 26 5 28.75 5 32.5C5 39.25 18 42.5 30 42.5C42 42.5 55 39.25 55 32.5C55 28.75 51.25 26 44.5 24.25ZM20 26.75C20.75 23 25 20 30 20C35 20 39.25 23 40 26.75C40 27 40 27.25 40 27.5V27.75C36.25 30 34 30 30 30C26 30 23.75 30 20 27.75V27.5C20 27.25 20 27 20 26.75ZM30 37.5C17 37.5 10 33.75 10 32.5C10 32.25 11 30.75 15.25 29.5C15.25 29.75 15.25 29.75 15.25 30C15.5 30.5 15.75 31 16.25 31.5C21.75 35 25.5 35 30 35C34.5 35 38.25 35 43.75 31.25C44.25 31 44.5 30.5 44.75 29.75C44.75 29.5 44.75 29.5 44.75 29.25C49 30.5 50 32 50 32.25C50 33.75 43 37.5 30 37.5Z" fill="black"/>
</svg>
